<svg xmlns="http://www.w3.org/2000/svg" width="893" height="1174" viewBox="0 0 893 1174">
<g>
<path d="M 495.50 1160.50 C482.36,1162.03 430.32,1163.36 420.50,1162.42 C418.30,1162.21 410.88,1161.54 404.00,1160.93 C365.58,1157.53 322.80,1147.24 285.00,1132.30 C143.56,1076.39 41.59,951.15 15.52,801.34 C14.37,794.74 13.44,789.60 12.69,784.43 C9.49,762.53 9.49,740.16 9.50,603.75 C9.50,598.35 9.50,592.77 9.50,587.00 C9.50,581.23 9.50,575.65 9.50,570.25 C9.49,433.84 9.49,411.47 12.69,389.57 C13.44,384.40 14.37,379.26 15.52,372.66 C45.25,201.82 173.42,64.68 341.42,23.97 C378.39,15.00 401.45,12.50 447.00,12.50 C484.37,12.50 494.32,13.18 521.50,17.62 C638.42,36.73 744.30,105.19 810.49,204.50 C822.93,223.16 830.36,235.77 838.45,251.91 C860.33,295.61 874.02,340.83 881.26,393.29 L 883.50 409.50 L 883.50 586.50 C883.50,752.00 883.38,764.41 881.68,777.50 C875.02,828.64 862.34,872.26 841.58,915.50 C799.68,1002.79 729.20,1074.16 642.08,1117.53 C596.57,1140.19 548.13,1154.39 495.50,1160.50 ZM 296.00 668.50 C330.20,675.41 365.39,656.63 391.53,617.50 C408.31,592.40 419.58,561.07 425.54,523.00 C427.76,508.76 428.64,466.17 427.06,449.27 C419.43,367.89 379.86,303.64 329.59,290.99 C319.85,288.54 301.64,288.31 292.00,290.52 C283.74,292.41 274.40,296.27 265.56,301.44 C256.31,306.85 238.77,323.83 230.84,335.07 C211.70,362.18 198.93,397.41 193.36,438.50 C191.17,454.72 190.85,499.10 192.81,515.00 C196.38,543.90 205.08,575.10 215.53,596.52 C234.94,636.29 263.64,661.95 296.00,668.50 ZM 321.76 654.49 C294.82,660.85 269.72,646.05 254.10,614.60 C242.34,590.94 235.96,561.96 232.93,518.51 C231.59,499.41 232.25,438.38 233.94,423.50 C241.41,357.98 257.73,322.14 286.59,307.84 L 295.36 303.50 L 324.65 303.50 L 333.20 307.73 C347.57,314.86 357.36,326.02 367.07,346.37 C381.60,376.80 389.34,432.35 387.57,493.50 C386.22,540.10 381.42,572.65 371.90,599.64 C361.29,629.70 343.26,649.42 321.76,654.49 ZM 577.20 584.80 C577.89,585.49 581.20,586.00 585.00,586.00 C588.80,586.00 592.11,585.49 592.80,584.80 C593.70,583.90 594.00,571.10 594.00,533.33 L 594.00 483.06 L 641.08 482.78 C644.62,482.76 647.91,482.74 650.97,482.73 C681.43,482.57 688.85,482.54 690.56,479.39 C691.12,478.38 691.08,477.04 691.03,475.28 C691.02,474.73 691.00,474.14 691.00,473.50 C691.00,472.89 691.02,472.33 691.03,471.81 C691.08,470.19 691.12,468.95 690.61,468.00 C688.98,464.97 681.76,464.94 651.38,464.80 C648.32,464.79 645.04,464.77 641.50,464.75 L 594.50 464.50 L 593.98 413.00 C593.69,384.67 593.35,361.39 593.23,361.25 C592.65,360.61 578.36,361.12 577.26,361.82 C576.30,362.43 575.96,374.32 575.76,413.55 L 575.50 464.50 L 528.59 464.76 C495.98,464.94 481.27,465.36 480.34,466.13 C479.48,466.85 479.00,469.50 479.00,473.57 C479.00,474.15 478.99,474.69 478.98,475.21 C478.94,477.14 478.91,478.60 479.52,479.69 C481.39,483.03 489.23,483.03 520.91,483.00 C523.66,483.00 526.60,483.00 529.72,483.00 L 576.00 483.00 L 576.00 533.30 C576.00,571.09 576.30,583.90 577.20,584.80 ZM 303.97 869.75 C309.40,872.49 313.17,872.56 318.78,870.01 C327.71,865.96 336.21,854.36 341.16,839.50 C343.10,833.67 343.49,830.41 343.49,819.98 C343.50,808.57 343.28,807.02 340.99,802.58 C337.79,796.34 334.37,793.84 328.26,793.25 C317.52,792.22 307.15,800.34 299.85,815.50 C295.40,824.74 293.04,834.65 293.02,844.20 C292.98,858.14 296.29,865.87 303.97,869.75 ZM 335.55 892.08 C336.30,893.30 356.72,893.27 357.47,892.05 C357.80,891.52 356.25,890.60 354.03,890.01 C351.81,889.41 350.00,888.60 350.00,888.21 C349.99,887.82 350.76,883.77 351.71,879.20 L 353.43 870.91 L 358.59 871.55 C365.35,872.40 371.25,869.85 377.91,863.19 C387.09,854.01 392.75,837.88 390.13,828.38 C387.77,819.83 382.30,816.00 372.46,816.00 L 366.85 816.00 L 367.17 812.75 C367.48,809.74 367.26,809.48 364.28,809.19 C361.20,808.89 361.01,809.09 359.88,813.57 C358.89,817.50 357.99,818.70 354.38,820.88 C348.21,824.62 348.74,826.19 355.25,823.51 C356.52,822.98 357.00,823.26 357.00,824.52 C357.00,827.51 342.82,887.44 341.81,888.69 C341.29,889.34 339.54,890.16 337.92,890.52 C336.31,890.87 335.24,891.58 335.55,892.08 ZM 316.72 867.03 C309.83,871.23 303.23,868.23 300.95,859.86 C299.38,854.12 300.38,838.79 302.99,828.44 C305.81,817.23 311.96,805.22 317.45,800.15 C321.35,796.56 322.56,796.00 326.48,796.00 C334.77,796.00 337.59,802.06 336.72,818.00 C335.56,838.98 326.57,861.02 316.72,867.03 ZM 573.75 870.92 C576.57,872.56 579.29,872.16 583.16,869.54 C586.46,867.29 595.00,856.01 595.00,853.89 C595.00,853.40 595.42,853.00 595.93,853.00 C596.50,853.00 596.50,854.24 595.93,856.24 C595.42,858.03 595.00,861.37 595.00,863.67 C595.00,867.00 595.54,868.28 597.63,869.93 C600.93,872.52 602.63,872.52 606.82,869.97 C610.21,867.90 614.14,860.78 615.49,854.25 C616.33,850.19 614.38,849.81 612.96,853.75 C609.16,864.28 606.19,867.62 603.24,864.67 C601.86,863.29 602.49,859.72 609.36,829.82 C613.57,811.49 617.31,795.42 617.67,794.09 C617.72,793.91 617.76,793.74 617.81,793.59 C618.00,792.94 618.12,792.50 617.96,792.29 C617.62,791.85 616.06,792.37 611.30,793.95 C610.75,794.13 610.15,794.33 609.50,794.54 C606.75,795.45 603.84,796.40 603.03,796.65 C601.73,797.05 601.73,797.22 603.03,798.04 C603.84,798.55 605.51,798.98 606.75,798.98 C609.27,799.00 609.38,799.62 607.93,806.00 C605.33,817.47 605.05,818.10 603.02,817.01 C597.57,814.09 590.07,817.06 582.40,825.17 C569.42,838.89 564.39,865.47 573.75,870.92 ZM 492.32 870.81 C495.36,872.28 496.67,872.22 500.04,870.48 C503.25,868.82 509.34,861.58 512.48,855.71 C514.92,851.13 516.18,850.90 514.93,855.24 C514.42,857.03 514.00,860.59 514.00,863.17 C514.00,867.04 514.46,868.22 516.63,869.93 C519.79,872.41 521.15,872.49 525.14,870.43 C528.42,868.73 532.66,860.85 533.69,854.54 C534.57,849.11 532.75,850.33 530.21,856.88 C527.70,863.35 524.90,866.56 522.54,865.65 C520.14,864.73 520.68,860.28 525.91,838.00 C528.56,826.72 530.31,817.34 529.80,817.15 C529.30,816.95 528.08,817.52 527.10,818.41 C525.46,819.89 525.15,819.86 523.01,818.01 C516.26,812.15 502.67,819.38 494.73,833.06 C486.49,847.26 485.20,867.37 492.32,870.81 ZM 465.63 869.93 C468.99,872.56 471.04,872.54 474.49,869.83 C477.55,867.42 483.00,856.78 483.00,853.19 C483.00,849.69 481.34,851.45 479.54,856.87 C477.68,862.48 474.10,866.36 471.66,865.42 C469.25,864.50 469.53,862.33 474.49,843.50 C479.38,824.97 479.86,820.61 477.35,817.83 C471.89,811.80 460.70,819.93 452.56,835.84 C450.11,840.65 449.65,839.15 451.44,832.22 C453.30,825.04 453.45,818.85 451.80,817.20 C450.17,815.57 446.50,815.69 442.99,817.51 C439.85,819.13 435.96,825.03 433.59,831.76 C431.33,838.14 433.49,837.79 436.47,831.29 C439.58,824.50 441.64,822.00 444.15,822.00 C446.88,822.00 446.59,824.37 440.96,848.09 C437.85,861.15 436.27,869.67 436.84,870.24 C437.35,870.75 438.77,871.02 439.98,870.83 C441.85,870.55 442.80,868.67 446.04,858.77 C452.76,838.25 462.99,821.32 469.00,820.74 C472.89,820.36 472.67,823.93 467.56,843.08 C462.17,863.34 461.91,866.99 465.63,869.93 ZM 401.30 870.04 C405.33,872.50 408.09,872.51 412.87,870.07 C417.92,867.49 423.25,860.37 425.44,853.25 C426.62,849.43 424.41,850.77 422.48,855.04 C419.84,860.90 413.83,866.00 409.57,866.00 C404.28,866.00 401.83,862.25 402.21,854.69 L 402.50 848.77 L 408.34 846.96 C415.97,844.61 424.31,839.01 427.61,834.02 C433.52,825.09 431.06,816.00 422.74,816.00 C413.86,816.00 405.81,822.60 399.48,835.07 C392.02,849.80 392.80,864.86 401.30,870.04 ZM 369.87 864.52 C366.42,867.75 364.25,869.00 362.11,869.00 C358.48,869.00 356.00,866.70 356.00,863.34 C356.00,859.53 364.89,821.84 366.15,820.32 C366.78,819.56 369.28,819.00 372.07,819.00 C375.71,819.00 377.57,819.58 379.67,821.39 C382.16,823.54 382.49,824.56 382.83,831.28 C383.47,844.05 378.72,856.25 369.87,864.52 ZM 491.00 973.50 C491.00,974.78 493.59,975.00 508.44,975.00 C521.30,975.00 526.09,974.67 526.68,973.75 C527.81,972.00 532.93,954.88 532.97,952.75 C533.03,949.48 531.51,950.99 528.00,957.69 C522.98,967.29 520.97,968.47 509.69,968.49 C501.62,968.50 500.50,968.29 500.50,966.76 C500.50,965.80 507.72,957.25 516.54,947.76 C525.37,938.27 533.96,928.47 535.63,926.00 C545.86,910.90 541.05,897.00 525.60,897.00 C519.78,897.00 516.27,898.39 512.16,902.31 C508.65,905.67 505.00,911.86 505.00,914.46 C505.00,917.22 506.66,916.08 508.47,912.07 C511.58,905.16 517.47,901.00 524.13,901.00 C531.08,901.00 534.76,906.63 532.99,914.55 C530.64,925.04 524.74,933.63 502.65,958.75 C496.24,966.03 491.00,972.67 491.00,973.50 ZM 421.50 974.00 C422.46,975.55 455.50,975.32 456.77,973.75 C458.02,972.22 464.17,951.83 463.56,951.23 C462.62,950.29 460.96,952.31 458.97,956.79 C456.28,962.89 452.50,966.77 448.06,968.00 C443.35,969.31 431.29,969.28 430.47,967.96 C429.49,966.36 431.58,963.80 448.17,946.29 C456.62,937.38 465.08,927.52 466.98,924.39 C473.46,913.69 471.90,901.94 463.51,898.44 C453.29,894.17 440.95,899.75 436.35,910.72 C433.35,917.87 435.81,917.95 439.69,910.83 C443.25,904.28 446.57,901.84 452.74,901.25 C456.92,900.85 458.06,901.15 460.57,903.31 C463.16,905.54 463.49,906.46 463.45,911.29 C463.36,921.28 457.69,930.31 435.95,955.14 C421.38,971.78 420.69,972.69 421.50,974.00 ZM 587.01 861.25 C580.83,868.27 575.98,867.53 576.02,859.55 C576.07,847.87 582.67,830.67 590.01,823.11 C593.57,819.44 594.59,818.93 597.79,819.19 C600.74,819.44 601.65,820.03 602.40,822.17 C604.56,828.37 595.34,851.79 587.01,861.25 ZM 508.99 856.31 C503.69,864.22 499.55,867.45 496.73,865.87 C495.35,865.10 495.00,863.51 495.00,858.06 C495.00,840.71 506.96,819.00 516.52,819.00 C519.38,819.00 520.07,819.43 520.61,821.57 C522.29,828.26 516.81,844.65 508.99,856.31 ZM 462.57 974.11 C463.34,975.36 485.73,975.24 486.51,973.99 C486.85,973.43 485.78,972.71 484.09,972.37 C482.41,972.03 480.64,971.25 480.14,970.63 C479.57,969.92 482.33,956.08 487.54,933.50 C492.11,913.70 495.55,897.20 495.18,896.82 C494.23,895.88 479.90,899.39 479.94,900.55 C479.95,901.07 481.77,901.64 483.98,901.81 C486.19,901.98 488.00,902.28 488.00,902.48 C488.00,904.21 472.65,968.79 471.90,970.18 C471.37,971.18 469.93,972.01 468.71,972.01 C465.22,972.04 461.97,973.14 462.57,974.11 ZM 546.22 870.44 C548.97,872.37 550.34,872.39 553.87,870.57 C557.98,868.44 565.00,856.65 565.00,851.87 C565.00,849.48 563.08,851.51 561.54,855.54 C558.58,863.27 553.40,868.07 551.43,864.89 C551.05,864.28 552.91,854.38 555.57,842.90 C561.13,818.88 561.07,816.72 554.83,816.20 C549.92,815.78 545.16,820.02 541.58,828.00 C537.42,837.28 538.90,838.79 543.54,830.00 C547.39,822.71 549.97,820.57 552.20,822.80 C552.84,823.44 551.60,830.53 548.59,843.38 C543.31,865.91 543.11,868.26 546.22,870.44 ZM 411.76 842.61 C405.98,845.64 403.97,846.08 403.34,844.45 C402.08,841.15 407.98,828.96 413.86,822.75 C417.97,818.41 423.38,817.47 424.47,820.91 C426.29,826.63 419.21,838.70 411.76,842.61 ZM 392.52 958.03 C394.06,960.53 395.93,956.94 398.00,947.48 L 400.29 937.07 L 410.31 936.78 C417.23,936.59 420.47,936.11 420.75,935.25 C421.06,934.31 418.84,934.00 411.75,934.00 C406.57,934.00 402.10,933.77 401.81,933.48 C401.53,933.19 402.34,928.58 403.62,923.23 C403.75,922.68 403.87,922.16 403.99,921.66 C405.71,914.51 406.15,912.64 405.53,912.16 C405.31,911.99 404.95,911.99 404.47,912.00 C404.38,912.00 404.28,912.00 404.17,912.00 C402.67,912.00 401.92,913.90 399.92,922.75 L 397.49 933.50 L 387.25 933.78 C379.04,934.01 377.00,934.36 377.00,935.53 C377.00,936.72 378.87,937.00 386.86,937.00 L 396.72 937.00 L 394.34 947.07 C393.04,952.61 392.21,957.54 392.52,958.03 ZM 555.75 804.92 C558.27,806.39 560.09,806.23 562.17,804.35 C565.66,801.18 563.98,795.00 559.63,795.00 C554.84,795.00 551.85,802.65 555.75,804.92 Z" fill="rgb(77,77,77)"/>
<path d="M 0.00 587.00 L 0.00 0.00 L 446.50 0.00 L 893.00 0.00 L 893.00 587.00 L 893.00 1174.00 L 446.50 1174.00 L 0.00 1174.00 L 0.00 587.00 ZM 495.50 1160.50 C548.13,1154.39 596.57,1140.19 642.08,1117.53 C729.20,1074.16 799.68,1002.79 841.58,915.50 C862.34,872.26 875.02,828.64 881.68,777.50 C883.38,764.41 883.50,752.00 883.50,586.50 L 883.50 409.50 L 881.26 393.29 C874.02,340.83 860.33,295.61 838.45,251.91 C830.36,235.77 822.93,223.16 810.49,204.50 C744.30,105.19 638.42,36.73 521.50,17.62 C494.32,13.18 484.37,12.50 447.00,12.50 C401.45,12.50 378.39,15.00 341.42,23.97 C173.42,64.68 45.25,201.82 15.52,372.66 C9.30,408.37 9.50,401.28 9.50,587.00 C9.50,772.72 9.30,765.63 15.52,801.34 C41.59,951.15 143.56,1076.39 285.00,1132.30 C322.80,1147.24 365.58,1157.53 404.00,1160.93 C410.88,1161.54 418.30,1162.21 420.50,1162.42 C430.32,1163.36 482.36,1162.03 495.50,1160.50 ZM 421.50 974.00 C420.69,972.69 421.38,971.78 435.95,955.14 C457.69,930.31 463.36,921.28 463.45,911.29 C463.49,906.46 463.16,905.54 460.57,903.31 C458.06,901.15 456.92,900.85 452.74,901.25 C446.57,901.84 443.25,904.28 439.69,910.83 C435.81,917.95 433.35,917.87 436.35,910.72 C440.95,899.75 453.29,894.17 463.51,898.44 C471.90,901.94 473.46,913.69 466.98,924.39 C465.08,927.52 456.62,937.38 448.17,946.29 C431.58,963.80 429.49,966.36 430.47,967.96 C431.29,969.28 443.35,969.31 448.06,968.00 C452.50,966.77 456.28,962.89 458.97,956.79 C460.96,952.31 462.62,950.29 463.56,951.23 C464.17,951.83 458.02,972.22 456.77,973.75 C455.50,975.32 422.46,975.55 421.50,974.00 ZM 462.57 974.11 C461.97,973.14 465.22,972.04 468.71,972.01 C469.93,972.01 471.37,971.18 471.90,970.18 C472.65,968.79 488.00,904.21 488.00,902.48 C488.00,902.28 486.19,901.98 483.98,901.81 C481.77,901.64 479.95,901.07 479.94,900.55 C479.90,899.39 494.23,895.88 495.18,896.82 C495.55,897.20 492.11,913.70 487.54,933.50 C482.33,956.08 479.57,969.92 480.14,970.63 C480.64,971.25 482.41,972.03 484.09,972.37 C485.78,972.71 486.85,973.43 486.51,973.99 C485.73,975.24 463.34,975.36 462.57,974.11 ZM 491.00 973.50 C491.00,972.67 496.24,966.03 502.65,958.75 C524.74,933.63 530.64,925.04 532.99,914.55 C534.76,906.63 531.08,901.00 524.13,901.00 C517.47,901.00 511.58,905.16 508.47,912.07 C506.66,916.08 505.00,917.22 505.00,914.46 C505.00,911.86 508.65,905.67 512.16,902.31 C516.27,898.39 519.78,897.00 525.60,897.00 C541.05,897.00 545.86,910.90 535.63,926.00 C533.96,928.47 525.37,938.27 516.54,947.76 C507.72,957.25 500.50,965.80 500.50,966.76 C500.50,968.29 501.62,968.50 509.69,968.49 C520.97,968.47 522.98,967.29 528.00,957.69 C531.51,950.99 533.03,949.48 532.97,952.75 C532.93,954.88 527.81,972.00 526.68,973.75 C526.09,974.67 521.30,975.00 508.44,975.00 C493.59,975.00 491.00,974.78 491.00,973.50 ZM 392.52 958.03 C392.21,957.54 393.04,952.61 394.34,947.07 L 396.72 937.00 L 386.86 937.00 C378.87,937.00 377.00,936.72 377.00,935.53 C377.00,934.36 379.04,934.01 387.25,933.78 L 397.49 933.50 L 399.92 922.75 C401.92,913.90 402.67,912.00 404.17,912.00 C406.41,912.00 406.44,911.43 403.62,923.23 C402.34,928.58 401.53,933.19 401.81,933.48 C402.10,933.77 406.57,934.00 411.75,934.00 C418.84,934.00 421.06,934.31 420.75,935.25 C420.47,936.11 417.23,936.59 410.31,936.78 L 400.29 937.07 L 398.00 947.48 C395.93,956.94 394.06,960.53 392.52,958.03 ZM 335.55 892.08 C335.24,891.58 336.31,890.87 337.92,890.52 C339.54,890.16 341.29,889.34 341.81,888.69 C342.82,887.44 357.00,827.51 357.00,824.52 C357.00,823.26 356.52,822.98 355.25,823.51 C348.74,826.19 348.21,824.62 354.38,820.88 C357.99,818.70 358.89,817.50 359.88,813.57 C361.01,809.09 361.20,808.89 364.28,809.19 C367.26,809.48 367.48,809.74 367.17,812.75 L 366.85 816.00 L 372.46 816.00 C382.30,816.00 387.77,819.83 390.13,828.38 C392.75,837.88 387.09,854.01 377.91,863.19 C371.25,869.85 365.35,872.40 358.59,871.55 L 353.43 870.91 L 351.71 879.20 C350.76,883.77 349.99,887.82 350.00,888.21 C350.00,888.60 351.81,889.41 354.03,890.01 C356.25,890.60 357.80,891.52 357.47,892.05 C356.72,893.27 336.30,893.30 335.55,892.08 ZM 369.87 864.52 C378.72,856.25 383.47,844.05 382.83,831.28 C382.49,824.56 382.16,823.54 379.67,821.39 C377.57,819.58 375.71,819.00 372.07,819.00 C369.28,819.00 366.78,819.56 366.15,820.32 C364.89,821.84 356.00,859.53 356.00,863.34 C356.00,866.70 358.48,869.00 362.11,869.00 C364.25,869.00 366.42,867.75 369.87,864.52 ZM 303.97 869.75 C296.29,865.87 292.98,858.14 293.02,844.20 C293.04,834.65 295.40,824.74 299.85,815.50 C307.15,800.34 317.52,792.22 328.26,793.25 C334.37,793.84 337.79,796.34 340.99,802.58 C343.28,807.02 343.50,808.57 343.49,819.98 C343.49,830.41 343.10,833.67 341.16,839.50 C336.21,854.36 327.71,865.96 318.78,870.01 C313.17,872.56 309.40,872.49 303.97,869.75 ZM 316.72 867.03 C326.57,861.02 335.56,838.98 336.72,818.00 C337.59,802.06 334.77,796.00 326.48,796.00 C322.56,796.00 321.35,796.56 317.45,800.15 C311.96,805.22 305.81,817.23 302.99,828.44 C300.38,838.79 299.38,854.12 300.95,859.86 C303.23,868.23 309.83,871.23 316.72,867.03 ZM 401.30 870.04 C392.80,864.86 392.02,849.80 399.48,835.07 C405.81,822.60 413.86,816.00 422.74,816.00 C431.06,816.00 433.52,825.09 427.61,834.02 C424.31,839.01 415.97,844.61 408.34,846.96 L 402.50 848.77 L 402.21 854.69 C401.83,862.25 404.28,866.00 409.57,866.00 C413.83,866.00 419.84,860.90 422.48,855.04 C424.41,850.77 426.62,849.43 425.44,853.25 C423.25,860.37 417.92,867.49 412.87,870.07 C408.09,872.51 405.33,872.50 401.30,870.04 ZM 411.76 842.61 C419.21,838.70 426.29,826.63 424.47,820.91 C423.38,817.47 417.97,818.41 413.86,822.75 C407.98,828.96 402.08,841.15 403.34,844.45 C403.97,846.08 405.98,845.64 411.76,842.61 ZM 465.63 869.93 C461.91,866.99 462.17,863.34 467.56,843.08 C472.67,823.93 472.89,820.36 469.00,820.74 C462.99,821.32 452.76,838.25 446.04,858.77 C442.80,868.67 441.85,870.55 439.98,870.83 C438.77,871.02 437.35,870.75 436.84,870.24 C436.27,869.67 437.85,861.15 440.96,848.09 C446.59,824.37 446.88,822.00 444.15,822.00 C441.64,822.00 439.58,824.50 436.47,831.29 C433.49,837.79 431.33,838.14 433.59,831.76 C435.96,825.03 439.85,819.13 442.99,817.51 C446.50,815.69 450.17,815.57 451.80,817.20 C453.45,818.85 453.30,825.04 451.44,832.22 C449.65,839.15 450.11,840.65 452.56,835.84 C460.70,819.93 471.89,811.80 477.35,817.83 C479.86,820.61 479.38,824.97 474.49,843.50 C469.53,862.33 469.25,864.50 471.66,865.42 C474.10,866.36 477.68,862.48 479.54,856.87 C481.34,851.45 483.00,849.69 483.00,853.19 C483.00,856.78 477.55,867.42 474.49,869.83 C471.04,872.54 468.99,872.56 465.63,869.93 ZM 492.32 870.81 C485.20,867.37 486.49,847.26 494.73,833.06 C502.67,819.38 516.26,812.15 523.01,818.01 C525.15,819.86 525.46,819.89 527.10,818.41 C528.08,817.52 529.30,816.95 529.80,817.15 C530.31,817.34 528.56,826.72 525.91,838.00 C520.68,860.28 520.14,864.73 522.54,865.65 C524.90,866.56 527.70,863.35 530.21,856.88 C532.75,850.33 534.57,849.11 533.69,854.54 C532.66,860.85 528.42,868.73 525.14,870.43 C521.15,872.49 519.79,872.41 516.63,869.93 C514.46,868.22 514.00,867.04 514.00,863.17 C514.00,860.59 514.42,857.03 514.93,855.24 C516.18,850.90 514.92,851.13 512.48,855.71 C509.34,861.58 503.25,868.82 500.04,870.48 C496.67,872.22 495.36,872.28 492.32,870.81 ZM 508.99 856.31 C516.81,844.65 522.29,828.26 520.61,821.57 C520.07,819.43 519.38,819.00 516.52,819.00 C506.96,819.00 495.00,840.71 495.00,858.06 C495.00,863.51 495.35,865.10 496.73,865.87 C499.55,867.45 503.69,864.22 508.99,856.31 ZM 546.22 870.44 C543.11,868.26 543.31,865.91 548.59,843.38 C551.60,830.53 552.84,823.44 552.20,822.80 C549.97,820.57 547.39,822.71 543.54,830.00 C538.90,838.79 537.42,837.28 541.58,828.00 C545.16,820.02 549.92,815.78 554.83,816.20 C561.07,816.72 561.13,818.88 555.57,842.90 C552.91,854.38 551.05,864.28 551.43,864.89 C553.40,868.07 558.58,863.27 561.54,855.54 C563.08,851.51 565.00,849.48 565.00,851.87 C565.00,856.65 557.98,868.44 553.87,870.57 C550.34,872.39 548.97,872.37 546.22,870.44 ZM 573.75 870.92 C564.39,865.47 569.42,838.89 582.40,825.17 C590.07,817.06 597.57,814.09 603.02,817.01 C605.05,818.10 605.33,817.47 607.93,806.00 C609.38,799.62 609.27,799.00 606.75,798.98 C605.51,798.98 603.84,798.55 603.03,798.04 C601.73,797.22 601.73,797.05 603.03,796.65 C603.84,796.40 606.75,795.45 609.50,794.54 C619.02,791.40 618.38,791.43 617.67,794.09 C617.31,795.42 613.57,811.49 609.36,829.82 C602.49,859.72 601.86,863.29 603.24,864.67 C606.19,867.62 609.16,864.28 612.96,853.75 C614.38,849.81 616.33,850.19 615.49,854.25 C614.14,860.78 610.21,867.90 606.82,869.97 C602.63,872.52 600.93,872.52 597.63,869.93 C595.54,868.28 595.00,867.00 595.00,863.67 C595.00,861.37 595.42,858.03 595.93,856.24 C596.50,854.24 596.50,853.00 595.93,853.00 C595.42,853.00 595.00,853.40 595.00,853.89 C595.00,856.01 586.46,867.29 583.16,869.54 C579.29,872.16 576.57,872.56 573.75,870.92 ZM 587.01 861.25 C595.34,851.79 604.56,828.37 602.40,822.17 C601.65,820.03 600.74,819.44 597.79,819.19 C594.59,818.93 593.57,819.44 590.01,823.11 C582.67,830.67 576.07,847.87 576.02,859.55 C575.98,867.53 580.83,868.27 587.01,861.25 ZM 555.75 804.92 C551.85,802.65 554.84,795.00 559.63,795.00 C563.98,795.00 565.66,801.18 562.17,804.35 C560.09,806.23 558.27,806.39 555.75,804.92 ZM 296.00 668.50 C263.64,661.95 234.94,636.29 215.53,596.52 C205.08,575.10 196.38,543.90 192.81,515.00 C190.85,499.10 191.17,454.72 193.36,438.50 C198.93,397.41 211.70,362.18 230.84,335.07 C238.77,323.83 256.31,306.85 265.56,301.44 C274.40,296.27 283.74,292.41 292.00,290.52 C301.64,288.31 319.85,288.54 329.59,290.99 C379.86,303.64 419.43,367.89 427.06,449.27 C428.64,466.17 427.76,508.76 425.54,523.00 C419.58,561.07 408.31,592.40 391.53,617.50 C365.39,656.63 330.20,675.41 296.00,668.50 ZM 321.76 654.49 C343.26,649.42 361.29,629.70 371.90,599.64 C381.42,572.65 386.22,540.10 387.57,493.50 C389.34,432.35 381.60,376.80 367.07,346.37 C357.36,326.02 347.57,314.86 333.20,307.73 L 324.65 303.50 L 310.00 303.50 L 295.36 303.50 L 286.59 307.84 C257.73,322.14 241.41,357.98 233.94,423.50 C232.25,438.38 231.59,499.41 232.93,518.51 C235.96,561.96 242.34,590.94 254.10,614.60 C269.72,646.05 294.82,660.85 321.76,654.49 ZM 577.20 584.80 C576.30,583.90 576.00,571.09 576.00,533.30 L 576.00 483.00 L 529.72 483.00 C475.69,483.00 479.00,483.61 479.00,473.57 C479.00,469.50 479.48,466.85 480.34,466.13 C481.27,465.36 495.98,464.94 528.59,464.76 L 575.50 464.50 L 575.76 413.55 C575.96,374.32 576.30,362.43 577.26,361.82 C578.36,361.12 592.65,360.61 593.23,361.25 C593.35,361.39 593.69,384.67 593.98,413.00 L 594.50 464.50 L 641.50 464.75 C694.77,465.04 691.00,464.37 691.00,473.50 C691.00,483.16 694.77,482.46 641.08,482.78 L 594.00 483.06 L 594.00 533.33 C594.00,571.10 593.70,583.90 592.80,584.80 C592.11,585.49 588.80,586.00 585.00,586.00 C581.20,586.00 577.89,585.49 577.20,584.80 Z" fill="rgb(250,250,250)"/>
</g>
</svg>